<?xml version="1.0" encoding="utf-8"?>
<!-- Svg Vector Icons : http://www.onlinewebfonts.com/icon -->
<!DOCTYPE svg PUBLIC "-//W3C//DTD SVG 1.1//EN" "http://www.w3.org/Graphics/SVG/1.1/DTD/svg11.dtd">
<svg version="1.1" xmlns="http://www.w3.org/2000/svg" xmlns:xlink="http://www.w3.org/1999/xlink" x="0px" y="0px" viewBox="0 0 1000 1000" enable-background="new 0 0 1000 1000" xml:space="preserve">
<metadata> Svg Vector Icons : http://www.onlinewebfonts.com/icon </metadata>
<g><path d="M500,990c-66.1,0-130.3-13-190.7-38.5c-58.4-24.7-110.8-60-155.7-105c-45-45-80.3-97.4-105-155.7C23,630.3,10,566.1,10,500s13-130.3,38.5-190.7c24.7-58.4,60-110.8,105-155.7c45-45,97.4-80.3,155.7-105C369.7,23,433.9,10,500,10c66.1,0,130.3,13,190.7,38.5c58.4,24.7,110.8,60,155.7,105c45,45,80.3,97.4,105,155.7C977,369.7,990,433.9,990,500s-13,130.3-38.5,190.7c-24.7,58.4-60,110.8-105,155.7c-45,45-97.4,80.3-155.7,105C630.3,977,566.1,990,500,990z M500,56.2C255.3,56.2,56.2,255.3,56.2,500c0,244.7,199.1,443.8,443.8,443.8c244.7,0,443.8-199.1,443.8-443.8C943.8,255.3,744.7,56.2,500,56.2z"/><path d="M500,77.3C266.6,77.3,77.3,266.6,77.3,500S266.6,922.7,500,922.7S922.7,733.4,922.7,500C922.7,266.6,733.4,77.3,500,77.3z M757,763.7H243.5v-14.5l372.9-490.8H505.5c-65.1,0-114.6,19.8-148.8,59.4c-13.9,15.6-24.9,31.2-33,46.7c-8.2,15.6-17.7,39-28.6,70.1h-13V245.4h458.2v13.7L369.3,750h165.8c58.1,0,104.3-20.3,138.4-60.8c15.6-18.8,28.1-37.7,37.7-56.6c9.5-18.9,20.2-46.9,32.1-84H757V763.7z"/></g>
</svg>